<?xml version="1.0" standalone="no"?>
<!DOCTYPE svg PUBLIC "-//W3C//DTD SVG 20010904//EN"
 "http://www.w3.org/TR/2001/REC-SVG-20010904/DTD/svg10.dtd">
<svg version="1.0" xmlns="http://www.w3.org/2000/svg"
 width="512.000000pt" height="512.000000pt" viewBox="0 0 512.000000 512.000000"
 preserveAspectRatio="xMidYMid meet">

<g transform="translate(0.000000,512.000000) scale(0.100000,-0.100000)"
fill="#000000" stroke="none">
<path d="M1569 5017 c-69 -29 -107 -55 -149 -104 -35 -39 -80 -127 -80 -155 0
-16 -13 -18 -143 -18 -78 0 -157 -4 -176 -10 -82 -23 -144 -96 -156 -180 l-7
-49 -306 -3 c-294 -3 -309 -4 -348 -25 -53 -28 -100 -83 -114 -130 -8 -27 -10
-629 -8 -2079 l3 -2040 28 -42 c15 -23 46 -54 69 -69 l42 -28 1460 -3 c1033
-2 1472 0 1499 8 48 14 102 61 130 114 21 40 22 52 25 409 l3 367 128 0 c388
0 837 177 1277 504 150 111 225 184 260 253 27 53 29 67 29 163 0 92 -3 112
-26 160 -14 30 -44 75 -66 100 -38 43 -39 46 -27 75 17 40 17 148 0 189 -20
47 -82 113 -130 139 -58 30 -174 30 -231 0 -196 -104 -193 -372 4 -472 58 -30
112 -34 182 -17 72 19 77 17 120 -59 54 -94 34 -212 -47 -285 -278 -251 -753
-503 -1084 -575 -115 -25 -328 -31 -425 -11 -224 45 -379 195 -431 414 -20 83
-22 267 -5 377 47 293 230 688 459 990 146 192 184 226 269 240 57 9 138 -16
186 -57 l38 -33 -15 -44 c-35 -96 -10 -198 65 -273 146 -146 396 -69 439 135
29 142 -62 277 -208 308 -47 9 -65 9 -115 -5 l-59 -17 -39 35 c-145 132 -361
136 -508 10 l-41 -36 0 549 c0 622 0 620 -71 692 -66 66 -97 71 -431 71 l-288
0 0 29 c0 77 -50 153 -124 187 -46 22 -64 24 -197 24 l-146 0 -22 60 c-29 78
-109 166 -188 205 -49 24 -72 29 -153 32 -82 3 -103 0 -151 -20z m224 -140
c79 -34 131 -104 143 -196 12 -89 17 -91 234 -91 241 0 230 8 230 -163 0 -95
-4 -128 -16 -145 l-15 -22 -663 0 c-605 0 -665 1 -677 17 -10 11 -15 53 -17
140 -2 120 -2 124 22 148 25 25 27 25 209 25 219 0 222 1 237 94 15 94 59 155
140 193 35 16 134 16 173 0z m-926 -588 c14 -73 49 -122 114 -159 l44 -25 665
0 c366 0 682 4 703 8 77 16 156 117 157 200 l0 38 296 -3 296 -3 24 -28 24
-28 0 -647 0 -646 -73 -110 c-298 -448 -446 -900 -408 -1243 7 -56 19 -125 27
-153 l15 -52 -86 -89 c-126 -130 -158 -223 -120 -343 22 -69 25 -65 -123 -176
-176 -132 -389 -230 -579 -266 -119 -22 -313 -15 -396 14 -157 57 -270 154
-333 287 -104 218 -79 516 67 808 22 42 41 77 43 77 2 0 33 -15 69 -34 216
-113 494 -75 665 92 266 259 230 694 -76 895 -100 66 -169 89 -287 95 -125 6
-192 -8 -297 -60 -138 -69 -235 -184 -289 -338 -34 -99 -32 -248 4 -353 15
-43 43 -102 61 -131 l34 -53 -57 -115 c-111 -220 -157 -415 -148 -623 6 -142
25 -222 78 -330 123 -253 368 -394 685 -395 306 0 646 137 933 377 49 41 81
61 91 57 49 -22 120 -34 160 -29 78 11 129 41 219 130 48 47 95 85 104 85 17
0 17 -26 15 -376 l-3 -376 -24 -19 c-23 -19 -60 -19 -1457 -19 -1421 0 -1434
0 -1454 20 -20 20 -20 33 -20 2031 0 1403 3 2016 11 2030 6 11 20 24 32 29 12
5 148 9 302 9 l280 1 12 -61z m3251 -1255 c31 -20 54 -77 46 -112 -9 -39 -52
-81 -90 -88 -107 -20 -175 114 -96 188 42 41 90 44 140 12z m-2377 -422 c125
-60 218 -184 241 -324 30 -182 -72 -367 -249 -451 -63 -30 -75 -32 -173 -32
-97 1 -110 3 -172 32 -177 83 -281 272 -249 454 27 154 130 281 274 335 53 21
76 24 162 21 88 -3 108 -7 166 -35z m3012 -212 c53 -59 26 -158 -49 -179 -76
-21 -144 31 -144 109 0 100 126 145 193 70z m-1801 -1254 l63 -57 -62 -59
c-36 -34 -77 -63 -98 -69 -67 -18 -144 21 -165 85 -20 61 -5 100 67 175 l66
68 33 -43 c18 -24 61 -69 96 -100z"/>
<path d="M511 3833 c-11 -10 -24 -32 -27 -50 -5 -26 -1 -37 19 -57 l26 -26
604 0 604 0 21 23 c29 31 28 72 -3 102 l-24 25 -599 0 c-557 0 -601 -1 -621
-17z"/>
<path d="M503 3484 c-20 -20 -24 -31 -19 -57 13 -67 -83 -62 1217 -65 l1180
-2 24 24 c32 32 33 75 2 104 l-23 22 -1178 0 -1177 0 -26 -26z"/>
<path d="M534 3170 c-26 -10 -54 -48 -54 -71 0 -9 9 -28 21 -43 l20 -26 1185
0 c1171 0 1184 0 1204 20 38 38 22 100 -31 119 -39 13 -2312 15 -2345 1z"/>
<path d="M1505 2461 c-185 -48 -247 -266 -115 -402 33 -35 59 -51 99 -63 68
-20 74 -20 142 0 40 12 66 28 101 64 114 118 83 305 -63 380 -42 22 -121 32
-164 21z m123 -177 c30 -35 30 -87 -3 -119 -54 -55 -155 -18 -155 57 0 88 100
127 158 62z"/>
</g>
</svg>
