<?xml version="1.0" standalone="no"?>
<!DOCTYPE svg PUBLIC "-//W3C//DTD SVG 20010904//EN"
 "http://www.w3.org/TR/2001/REC-SVG-20010904/DTD/svg10.dtd">
<svg version="1.0" xmlns="http://www.w3.org/2000/svg"
 width="512.000000pt" height="512.000000pt" viewBox="0 0 512.000000 512.000000"
 preserveAspectRatio="xMidYMid meet">

<g transform="translate(0.000000,512.000000) scale(0.100000,-0.100000)"
fill="#000000" stroke="none">
<path d="M1930 4906 c0 -213 0 -214 23 -220 48 -13 47 -16 47 174 l0 180 1090
0 1090 0 0 -1020 0 -1020 -277 2 -278 3 -3 123 c-1 67 -1 122 2 122 2 0 35
-12 72 -27 56 -21 86 -27 159 -27 81 -1 95 2 137 27 132 77 149 228 54 453
-74 175 -302 556 -358 597 -71 53 -189 23 -228 -58 -37 -77 -29 -105 82 -275
140 -216 237 -400 211 -400 -5 0 -53 26 -108 58 l-100 57 -324 3 c-309 3 -323
2 -317 -15 23 -59 40 -148 40 -214 -1 -176 -116 -290 -299 -296 l-80 -2 -3
-66 -3 -65 -49 0 -50 0 0 -40 0 -40 900 0 900 0 0 1100 0 1100 -1165 0 -1165
0 0 -214z"/>
<path d="M3427 4953 c-4 -3 -7 -10 -7 -14 0 -14 652 -629 666 -629 8 0 14 6
14 14 0 13 -647 636 -660 636 -4 0 -10 -3 -13 -7z"/>
<path d="M3694 4849 c-4 -7 54 -72 139 -157 117 -117 149 -144 159 -134 10 10
-17 42 -132 157 -80 80 -148 145 -152 145 -4 0 -10 -5 -14 -11z"/>
<path d="M3534 4689 c-8 -13 275 -301 291 -296 5 2 11 10 13 18 3 16 -267 289
-286 289 -6 0 -14 -5 -18 -11z"/>
<path d="M1733 4631 c-202 -69 -329 -279 -295 -484 17 -99 55 -171 126 -243
72 -71 144 -109 243 -126 186 -31 379 72 463 247 29 60 35 83 38 161 8 167
-47 285 -179 385 -100 76 -274 102 -396 60z"/>
<path d="M2950 4630 c-73 -27 -150 -79 -193 -132 -34 -41 -87 -141 -87 -163 0
-6 13 -19 30 -28 22 -14 34 -15 49 -7 30 16 50 12 76 -15 44 -43 27 -112 -23
-98 -33 8 -27 -14 13 -50 43 -38 46 -76 9 -113 -21 -22 -31 -25 -60 -20 -43 9
-44 -3 -4 -66 73 -117 247 -186 401 -160 82 14 174 58 232 111 23 20 55 43 71
49 39 17 19 37 -33 33 -75 -5 -109 72 -56 125 25 24 33 54 16 54 -4 0 -20 -9
-34 -20 l-26 -20 -15 22 c-22 31 -20 52 8 84 18 22 32 28 60 27 29 -1 43 6 73
36 21 21 44 40 52 42 12 4 11 13 -4 54 -44 113 -148 213 -267 255 -78 27 -212
27 -288 0z"/>
<path d="M1289 4277 c-75 -50 -338 -496 -399 -677 -28 -82 -37 -186 -20 -244
17 -62 68 -119 132 -146 67 -29 161 -24 266 13 l72 25 0 -1512 c0 -1662 -3
-1571 61 -1649 48 -58 101 -81 184 -81 83 0 136 23 184 81 63 76 61 48 61
1030 l0 893 45 0 45 0 0 -901 c0 -679 3 -912 12 -943 16 -55 99 -138 154 -154
117 -34 236 15 289 121 l25 51 0 1534 c0 1457 1 1534 18 1527 100 -41 133 -48
217 -49 82 -1 94 2 138 27 61 36 96 89 109 169 9 54 8 74 -10 146 -38 150
-134 338 -307 603 -87 132 -117 159 -184 159 l-31 0 0 -86 c0 -65 -6 -104 -25
-161 l-26 -75 71 -114 c80 -130 175 -313 166 -321 -3 -3 -52 21 -108 53 l-103
59 -450 0 -450 0 -101 -57 c-55 -32 -106 -58 -113 -58 -15 0 78 183 168 328
l70 112 -26 68 c-21 54 -26 85 -27 159 l-1 93 -36 0 c-21 0 -50 -10 -70 -23z"/>
<path d="M2547 4293 c-6 -10 145 -243 158 -246 6 -1 18 14 28 33 49 95 -30
220 -139 220 -24 0 -45 -3 -47 -7z"/>
<path d="M2211 3822 l-50 -99 82 -5 c45 -3 100 -13 121 -22 22 -9 40 -15 42
-13 3 2 -128 222 -138 233 -3 3 -29 -40 -57 -94z"/>
<path d="M1958 3743 c-40 -6 -34 -23 7 -23 24 0 35 5 35 15 0 8 -3 14 -7 14
-5 -1 -20 -4 -35 -6z"/>
<path d="M2939 2807 c-70 -26 -130 -90 -162 -174 -18 -47 -16 -50 39 -58 39
-6 39 -6 64 47 32 67 76 98 140 98 67 0 110 -31 132 -95 13 -38 17 -85 18
-197 l0 -148 45 0 45 0 0 173 c-1 117 -5 184 -14 210 -20 55 -62 104 -109 128
-52 27 -149 34 -198 16z"/>
<path d="M3405 2500 l-29 -30 22 -23 22 -23 -55 -54 c-52 -51 -54 -55 -38 -72
16 -18 19 -17 70 34 46 45 56 51 71 40 35 -25 44 -24 70 2 l27 26 -66 65 -65
66 -29 -31z"/>
<path d="M2460 1935 l0 -315 895 0 895 0 0 315 0 315 -895 0 -895 0 0 -315z"/>
</g>
</svg>
