<?xml version="1.0" standalone="no"?>
<!DOCTYPE svg PUBLIC "-//W3C//DTD SVG 20010904//EN"
 "http://www.w3.org/TR/2001/REC-SVG-20010904/DTD/svg10.dtd">
<svg version="1.0" xmlns="http://www.w3.org/2000/svg"
 width="512.000000pt" height="512.000000pt" viewBox="0 0 512.000000 512.000000"
 preserveAspectRatio="xMidYMid meet">

<g transform="translate(0.000000,512.000000) scale(0.100000,-0.100000)"
fill="#000000" stroke="none">
<path d="M3361 4942 c-19 -9 -48 -34 -65 -55 l-31 -39 -5 -183 -5 -184 -320
156 c-306 150 -323 157 -390 160 -70 4 -70 4 -225 -72 -85 -42 -546 -268
-1025 -502 -478 -234 -882 -437 -897 -451 -36 -33 -45 -80 -23 -125 19 -41 74
-72 114 -64 14 3 481 229 1037 501 l1012 496 398 -195 c437 -213 455 -219 511
-171 l28 24 5 249 5 248 172 3 172 2 3 -379 c3 -365 4 -381 24 -407 28 -38
701 -375 762 -382 74 -8 122 36 122 112 0 63 -27 82 -364 247 l-316 154 0 367
c0 234 -4 377 -11 395 -5 15 -22 41 -37 57 -50 53 -68 56 -354 56 -231 0 -267
-2 -297 -18z"/>
<path d="M1630 3910 c-167 -21 -331 -134 -410 -281 -36 -68 -70 -193 -70 -258
1 -166 87 -340 218 -440 105 -81 202 -113 342 -112 152 0 287 59 393 173 197
210 197 535 1 748 -116 125 -303 192 -474 170z m215 -241 c67 -33 131 -98 163
-167 22 -47 26 -71 26 -137 0 -122 -48 -213 -147 -278 -170 -111 -393 -52
-484 127 -89 176 -11 384 173 462 79 33 194 30 269 -7z"/>
<path d="M3472 3185 c-133 -30 -273 -139 -334 -259 -42 -83 -58 -147 -58 -237
0 -365 388 -611 719 -454 135 65 250 209 280 353 74 355 -254 678 -607 597z
m244 -233 c180 -93 213 -342 63 -476 -146 -132 -373 -86 -461 93 -31 63 -32
176 -2 242 69 149 257 215 400 141z"/>
<path d="M1189 2685 c-144 -29 -266 -95 -373 -201 -76 -75 -123 -146 -163
-244 -48 -121 -53 -167 -53 -575 0 -378 0 -380 24 -430 28 -60 56 -87 116
-114 43 -20 64 -21 488 -21 492 0 490 0 518 65 19 45 8 90 -28 120 l-30 25
-243 0 -244 0 -3 344 -3 344 -24 26 c-34 36 -88 36 -122 0 l-24 -26 -3 -344
-3 -345 -102 3 -102 3 0 370 c0 326 2 377 18 427 60 195 233 343 433 369 115
15 875 7 929 -10 22 -7 75 -30 117 -52 97 -49 120 -49 165 -4 33 33 35 39 30
81 -6 58 -22 75 -121 123 -152 75 -145 75 -666 77 -360 2 -480 0 -531 -11z"/>
<path d="M2480 2300 c-259 -55 -406 -351 -293 -593 143 -305 560 -332 743 -48
61 96 80 237 46 351 -34 115 -140 227 -253 270 -66 25 -176 34 -243 20z m188
-229 c132 -68 152 -249 39 -348 -79 -69 -189 -69 -273 0 -111 92 -94 279 31
344 71 38 135 39 203 4z"/>
<path d="M3142 2065 c-39 -17 -66 -73 -57 -116 4 -16 20 -40 37 -54 l30 -25
376 0 c207 0 409 -5 447 -10 194 -28 346 -184 375 -385 5 -38 10 -199 10 -357
l0 -288 -65 0 -65 0 0 289 c0 189 -4 299 -11 321 -15 41 -64 64 -106 50 -56
-20 -58 -28 -61 -357 l-3 -303 -245 0 c-271 0 -290 -4 -320 -61 -22 -43 -11
-91 27 -124 l31 -26 443 3 443 3 44 30 c28 20 53 49 71 85 l28 55 -3 375 -3
375 -28 80 c-72 205 -222 355 -420 422 l-82 28 -430 2 c-359 2 -435 0 -463
-12z"/>
<path d="M2208 1369 c-201 -29 -376 -187 -443 -399 -23 -72 -34 -552 -15 -644
16 -79 74 -139 149 -155 72 -15 1250 -15 1322 0 72 16 124 64 145 136 13 46
15 100 12 336 -5 309 -9 333 -71 452 -71 133 -235 250 -387 274 -76 13 -629
12 -712 0z m764 -237 c100 -49 168 -146 188 -263 5 -35 10 -160 10 -276 l0
-213 -35 0 -35 0 0 234 c0 230 0 235 -23 261 -17 21 -32 27 -62 27 -30 0 -45
-6 -62 -27 -23 -26 -23 -31 -23 -261 l0 -234 -350 0 -350 0 0 219 c0 242 -6
276 -52 295 -39 17 -71 10 -100 -21 -23 -24 -23 -29 -26 -259 l-4 -234 -44 0
-44 0 0 246 c0 163 4 261 12 288 29 100 110 190 202 226 48 18 74 19 401 17
343 -2 351 -2 397 -25z"/>
</g>
</svg>
