<?xml version="1.0" standalone="no"?>
<!DOCTYPE svg PUBLIC "-//W3C//DTD SVG 20010904//EN"
 "http://www.w3.org/TR/2001/REC-SVG-20010904/DTD/svg10.dtd">
<svg version="1.0" xmlns="http://www.w3.org/2000/svg"
 width="512.000000pt" height="512.000000pt" viewBox="0 0 512.000000 512.000000"
 preserveAspectRatio="xMidYMid meet">

<g transform="translate(0.000000,512.000000) scale(0.100000,-0.100000)"
fill="#000000" stroke="none">
<path d="M2360 5100 c-124 -36 -676 -241 -778 -290 -396 -189 -758 -564 -974
-1008 -68 -141 -74 -175 -34 -209 56 -48 96 -19 153 107 184 414 543 795 918
975 50 24 241 99 425 166 318 116 339 123 410 123 57 0 86 -6 122 -23 56 -27
113 -86 137 -144 19 -45 56 -186 50 -191 -2 -2 -170 -64 -374 -138 l-370 -135
-30 24 c-73 58 -81 59 -183 19 -328 -126 -605 -335 -870 -653 -131 -158 -137
-167 -126 -205 12 -39 50 -64 87 -54 17 4 54 41 109 109 108 134 282 312 388
398 108 87 258 177 385 233 l100 43 49 -38 c29 -24 59 -39 76 -39 25 0 30 -6
55 -77 31 -88 58 -123 91 -123 27 0 678 234 711 256 37 23 38 57 8 142 -16 42
-30 82 -32 89 -3 7 10 18 29 26 69 29 72 47 34 212 -35 146 -81 239 -151 303
-119 109 -265 145 -415 102z m382 -771 c-6 -5 -114 -45 -415 -154 l-98 -35
-15 36 c-8 20 -14 40 -12 46 2 6 118 52 258 103 l255 92 17 -41 c9 -22 13 -44
10 -47z"/>
<path d="M2806 4129 c-34 -27 -34 -65 2 -116 84 -123 181 -244 207 -258 55
-30 117 17 102 77 -7 25 -197 285 -224 306 -25 18 -57 15 -87 -9z"/>
<path d="M2532 4027 c-12 -13 -22 -34 -22 -48 0 -14 34 -117 75 -230 76 -210
94 -239 142 -239 29 0 73 41 73 68 0 33 -147 425 -168 449 -27 30 -72 30 -100
0z"/>
<path d="M2262 3940 c-40 -17 -45 -45 -35 -215 8 -147 11 -159 32 -176 31 -25
72 -24 101 3 23 21 23 23 16 175 -4 85 -12 165 -18 178 -6 13 -24 29 -41 35
-16 5 -30 10 -31 9 -1 0 -11 -4 -24 -9z"/>
<path d="M3343 3855 c-29 -21 -32 -84 -5 -108 10 -9 59 -24 108 -32 226 -40
420 -136 578 -286 143 -135 238 -285 296 -466 55 -172 55 -165 55 -1148 l0
-910 -29 -58 c-19 -40 -41 -67 -68 -85 -70 -47 -88 -68 -88 -105 0 -74 70 -88
156 -31 101 67 157 161 175 291 7 51 9 380 6 963 -4 971 -3 951 -67 1142 -95
282 -303 539 -559 687 -197 114 -495 192 -558 146z"/>
<path d="M2025 3276 c-47 -47 -111 -196 -152 -355 l-28 -106 0 -980 0 -980 32
-67 c35 -75 100 -146 162 -177 53 -27 76 -26 106 4 31 30 32 70 3 96 -13 10
-45 38 -72 62 -92 80 -86 2 -86 1047 0 1006 0 997 60 1167 16 45 45 114 65
152 42 83 43 104 10 136 -31 31 -69 32 -100 1z"/>
<path d="M3398 2823 c-9 -10 -28 -43 -43 -73 -118 -235 -326 -424 -569 -515
-132 -50 -180 -57 -419 -64 -225 -6 -229 -6 -248 -30 -47 -58 -7 -121 78 -121
l50 0 6 -177 c7 -209 24 -290 91 -428 87 -178 232 -320 414 -404 l53 -25 -3
-115 -3 -116 -80 -21 c-126 -34 -221 -71 -346 -136 -198 -103 -383 -249 -526
-417 -55 -65 -64 -80 -61 -110 4 -44 44 -77 83 -67 15 4 44 26 64 49 247 284
522 462 833 538 167 41 158 38 174 74 9 23 14 73 14 152 l0 118 225 0 225 0 0
-137 c0 -134 0 -137 25 -157 14 -11 58 -27 98 -36 235 -52 468 -166 662 -325
39 -32 117 -107 175 -169 115 -121 137 -132 178 -88 38 41 29 78 -36 154 -241
279 -558 478 -899 564 l-53 13 0 118 0 119 56 25 c203 89 378 292 453 522 35
109 42 209 39 550 l-3 324 -25 20 c-20 16 -33 19 -70 14 -116 -17 -142 -18
-192 -6 -73 18 -123 44 -180 98 -55 51 -102 141 -113 215 -3 27 -15 57 -26 68
-24 24 -80 25 -101 2z m132 -392 c27 -25 72 -61 102 -78 64 -39 190 -73 270
-73 l58 0 0 -269 c0 -298 -9 -373 -58 -488 -87 -207 -242 -345 -462 -415 -68
-21 -93 -23 -265 -23 -177 1 -195 2 -267 27 -200 67 -362 211 -443 393 -47
108 -58 168 -59 345 l-1 165 90 6 c216 14 400 78 595 207 96 64 236 199 294
285 l40 58 29 -47 c16 -26 51 -68 77 -93z"/>
</g>
</svg>
