<?xml version="1.0" standalone="no"?>
<!DOCTYPE svg PUBLIC "-//W3C//DTD SVG 20010904//EN"
 "http://www.w3.org/TR/2001/REC-SVG-20010904/DTD/svg10.dtd">
<svg version="1.0" xmlns="http://www.w3.org/2000/svg"
 width="512.000000pt" height="512.000000pt" viewBox="0 0 512.000000 512.000000"
 preserveAspectRatio="xMidYMid meet">

<g transform="translate(0.000000,512.000000) scale(0.100000,-0.100000)"
fill="#000000" stroke="none">
<path d="M1235 4834 c-95 -11 -219 -36 -296 -60 -463 -146 -807 -527 -911
-1007 -32 -149 -32 -400 0 -546 44 -194 124 -374 235 -525 66 -89 555 -589
600 -612 32 -17 59 -11 87 19 42 45 35 55 -243 336 -144 146 -283 293 -308
326 -310 408 -331 956 -54 1381 114 175 285 325 479 420 418 203 917 145 1274
-150 37 -30 132 -120 212 -200 l145 -146 -207 -207 c-253 -254 -263 -271 -263
-433 0 -99 2 -110 32 -171 39 -80 111 -150 191 -187 50 -24 69 -27 157 -27 92
0 105 3 170 33 63 30 98 61 368 330 164 163 300 307 303 320 10 39 -5 72 -38
87 -18 7 -39 10 -47 7 -9 -3 -149 -137 -312 -298 -211 -210 -308 -299 -340
-313 -121 -56 -273 4 -324 126 -22 52 -19 145 5 196 15 31 144 166 448 469
340 338 445 436 513 481 361 238 800 269 1184 83 681 -329 887 -1197 426
-1801 -56 -73 -349 -375 -365 -375 -6 0 -247 236 -536 525 -569 569 -552 554
-605 500 -55 -54 -84 -20 689 -795 393 -393 722 -731 732 -750 27 -51 25 -162
-3 -216 -45 -86 -156 -144 -245 -130 -79 13 -121 47 -383 306 -143 142 -267
259 -275 260 -53 7 -90 -23 -90 -72 0 -28 26 -59 234 -268 129 -129 242 -251
252 -270 26 -51 24 -153 -4 -206 -41 -81 -128 -134 -217 -134 -94 0 -103 7
-396 297 -244 242 -279 273 -307 273 -42 0 -72 -31 -72 -72 0 -28 26 -58 230
-263 251 -253 269 -279 270 -378 0 -69 -19 -120 -63 -165 -48 -50 -103 -75
-167 -76 -106 0 -113 4 -405 295 -173 171 -280 270 -297 274 -22 6 -33 1 -59
-24 -25 -26 -30 -37 -24 -59 4 -17 83 -104 210 -232 194 -196 204 -208 220
-265 41 -139 -38 -274 -178 -305 -84 -18 -156 5 -235 76 l-42 39 20 63 c79
249 -91 495 -351 510 l-77 4 -4 82 c-11 199 -162 349 -367 363 l-79 6 -4 81
c-4 62 -11 95 -33 141 -73 152 -246 244 -408 217 -316 -52 -443 -421 -227
-656 71 -77 225 -136 313 -119 27 5 27 5 27 -54 0 -156 94 -301 236 -365 33
-14 76 -23 130 -26 l81 -4 5 -82 c9 -145 91 -267 222 -331 114 -56 276 -43
382 29 l37 25 49 -44 c133 -120 309 -144 460 -63 94 50 174 153 193 248 14 72
13 71 44 56 49 -26 144 -38 212 -27 171 28 312 171 326 330 l5 56 112 0 c100
0 117 3 169 27 74 35 156 113 191 181 15 30 32 84 38 121 8 49 15 66 24 62 35
-13 114 -17 166 -7 258 47 400 323 287 559 -15 30 -74 99 -165 192 l-143 145
168 170 c190 192 265 289 338 431 63 123 95 211 125 345 32 146 32 397 0 546
-76 353 -278 650 -577 848 -223 148 -462 218 -740 218 -223 0 -408 -44 -605
-143 -148 -75 -231 -139 -427 -333 l-183 -181 -187 185 c-105 102 -222 207
-264 236 -158 108 -349 187 -526 217 -93 16 -281 27 -348 20z m170 -2965 c178
-50 237 -280 104 -406 -103 -98 -271 -86 -356 25 -140 184 30 442 252 381z
m467 -455 c26 -8 63 -32 83 -51 122 -118 91 -320 -60 -393 -67 -32 -164 -26
-231 16 -162 100 -145 338 30 420 59 28 114 30 178 8z m475 -458 c167 -86 177
-322 19 -421 -44 -27 -58 -30 -126 -30 -68 0 -82 3 -126 30 -170 106 -145 361
43 431 47 18 147 13 190 -10z"/>
</g>
</svg>
