<?xml version="1.0" standalone="no"?>
<!DOCTYPE svg PUBLIC "-//W3C//DTD SVG 20010904//EN"
 "http://www.w3.org/TR/2001/REC-SVG-20010904/DTD/svg10.dtd">
<svg version="1.0" xmlns="http://www.w3.org/2000/svg"
 width="512.000000pt" height="512.000000pt" viewBox="0 0 512.000000 512.000000"
 preserveAspectRatio="xMidYMid meet">

<g transform="translate(0.000000,512.000000) scale(0.100000,-0.100000)"
fill="#000000" stroke="none">
<path d="M1805 5111 c-218 -37 -378 -122 -532 -285 -134 -142 -223 -306 -274
-504 -23 -90 -43 -282 -34 -328 l6 -34 -221 0 c-240 0 -265 -5 -288 -55 -16
-34 -15 -60 2 -94 25 -47 48 -51 299 -51 l232 0 24 -76 c31 -101 97 -232 161
-323 73 -103 235 -259 276 -267 60 -11 113 36 114 99 0 35 -9 48 -112 156 -65
68 -130 147 -154 187 -39 66 -94 191 -94 213 0 7 49 11 150 11 l150 0 130
-174 c71 -96 138 -179 149 -185 33 -18 78 -13 108 13 15 13 62 74 103 135 41
61 77 111 80 111 3 0 46 -81 95 -181 94 -188 111 -209 169 -209 14 0 39 12 55
28 17 15 105 165 202 344 94 175 174 316 179 313 4 -2 81 -141 170 -307 90
-167 174 -317 187 -335 29 -40 77 -52 122 -29 26 14 47 48 121 196 50 99 92
180 93 180 2 0 41 -54 87 -121 46 -66 93 -127 104 -135 29 -20 79 -17 108 6
14 11 81 94 149 185 l124 165 153 0 153 0 -6 -22 c-16 -51 -85 -189 -123 -244
-61 -88 -76 -104 -786 -789 l-660 -636 -100 99 c-360 353 -511 492 -542 498
-74 14 -136 -66 -108 -139 8 -21 680 -669 711 -685 59 -32 51 -39 754 639 365
352 705 682 756 733 137 139 235 299 288 471 l22 70 247 5 248 5 24 28 c33 38
33 96 0 134 l-24 28 -230 3 -229 3 -6 127 c-20 414 -243 780 -572 939 -226
108 -481 121 -735 37 -164 -55 -288 -130 -430 -259 l-71 -66 -60 53 c-178 158
-335 248 -514 294 -109 28 -307 40 -400 25z m369 -226 c90 -26 202 -78 271
-125 22 -15 78 -62 125 -104 102 -93 149 -119 210 -119 59 -1 89 16 185 103
155 140 275 209 433 252 103 28 298 30 392 5 155 -42 287 -127 386 -251 138
-172 214 -389 214 -607 l0 -79 -207 0 c-147 0 -215 -4 -233 -13 -14 -7 -68
-71 -121 -142 -54 -71 -101 -131 -106 -132 -6 -2 -49 53 -97 121 -93 134 -125
166 -163 166 -58 0 -78 -23 -164 -195 -46 -90 -86 -165 -89 -165 -4 0 -84 144
-179 320 -97 179 -185 329 -199 340 -29 24 -63 25 -102 5 -22 -11 -55 -65
-146 -232 -65 -120 -146 -269 -180 -332 l-62 -114 -85 169 c-47 94 -93 177
-103 184 -22 19 -96 19 -118 1 -9 -8 -51 -64 -93 -125 -42 -61 -84 -121 -94
-133 -16 -22 -17 -21 -119 116 -56 76 -113 144 -127 150 -15 7 -100 11 -228
11 l-205 0 -6 26 c-4 14 -3 62 1 107 37 436 300 759 664 817 92 15 247 4 345
-25z"/>
<path d="M1730 2952 c-42 -42 -42 -101 -1 -143 62 -61 161 -19 161 70 0 55
-32 90 -87 98 -37 5 -45 2 -73 -25z"/>
<path d="M1670 1664 c-220 -32 -319 -67 -508 -182 -64 -39 -99 -53 -153 -62
-39 -7 -71 -10 -73 -9 -1 2 -14 23 -29 47 -33 52 -92 95 -149 111 -30 9 -121
11 -298 9 -291 -3 -301 -6 -377 -92 -68 -77 -68 -79 -68 -656 0 -503 0 -516
21 -561 25 -53 80 -110 132 -136 33 -16 69 -18 302 -21 298 -3 319 0 393 67
42 37 87 120 87 159 0 26 1 26 141 12 147 -14 216 -31 692 -170 624 -181 592
-174 732 -174 103 0 131 4 200 27 44 15 116 47 160 72 117 67 1293 908 1337
956 21 23 50 66 65 98 25 49 28 67 28 151 0 84 -3 102 -28 152 -36 74 -119
150 -195 178 -47 18 -73 21 -148 18 l-91 -4 -454 -223 c-250 -123 -460 -225
-466 -228 -7 -3 -13 2 -13 11 0 57 -102 186 -178 225 -40 20 -441 143 -592
181 -153 39 -366 59 -470 44z m359 -224 c109 -23 564 -156 602 -176 38 -19 77
-69 89 -114 13 -48 1 -104 -32 -145 -25 -32 -91 -64 -132 -65 -16 0 -160 38
-320 85 -161 47 -306 85 -324 85 -72 0 -116 -67 -88 -133 8 -20 23 -40 33 -45
10 -6 153 -50 318 -99 276 -81 307 -88 385 -88 70 1 95 5 142 27 66 31 140 95
173 153 24 39 44 51 516 285 455 226 497 245 553 248 51 3 67 0 96 -20 72 -48
90 -148 39 -222 -28 -42 -1198 -880 -1316 -943 -107 -57 -187 -77 -284 -70
-74 6 -140 24 -874 237 -115 34 -250 70 -300 80 -80 17 -272 40 -332 40 l-23
0 0 324 0 324 23 6 c12 3 37 6 55 6 51 0 150 37 237 90 153 91 250 131 370
150 86 13 285 3 394 -20z m-1299 -80 c19 -19 20 -33 20 -517 0 -448 -2 -498
-17 -515 -15 -16 -36 -18 -246 -18 -200 0 -233 2 -249 17 -17 15 -18 44 -18
519 l0 503 22 15 c19 13 60 16 245 16 210 0 224 -1 243 -20z"/>
</g>
</svg>
