<?xml version="1.0" encoding="UTF-8"?>
<svg id="Layer_1" xmlns="http://www.w3.org/2000/svg" version="1.1" viewBox="0 0 24 24">
  <!-- Generator: Adobe Illustrator 29.0.1, SVG Export Plug-In . SVG Version: 2.1.0 Build 192)  -->
  <defs>
    <style>
      .st0 {
        fill: none;
        stroke: #083952;
        stroke-linecap: round;
        stroke-linejoin: round;
        stroke-width: 2px;
      }
    </style>
  </defs>
  <path class="st0" d="M2,9.5c0-3,2.5-5.5,5.5-5.5,1.6,0,3,.7,4.1,1.8.2.2.6.2.8,0,0,0,0,0,0,0,2-2.3,5.5-2.5,7.8-.5,1.2,1,1.8,2.6,1.8,4.1,0,2.3-1.5,4-3,5.5l-5.5,5.3c-.7.8-2,.9-2.8.2,0,0-.1-.1-.2-.2l-5.5-5.3c-1.5-1.5-3-3.2-3-5.5"/>
</svg>