<?xml version="1.0" encoding="UTF-8"?>
<svg id="Layer_1" xmlns="http://www.w3.org/2000/svg" version="1.1" viewBox="0 0 24 24">
  <!-- Generator: Adobe Illustrator 29.0.1, SVG Export Plug-In . SVG Version: 2.1.0 Build 192)  -->
  <defs>
    <style>
      .st0 {
        fill: none;
        stroke: #083952;
        stroke-linecap: round;
        stroke-linejoin: round;
        stroke-width: 2px;
      }
    </style>
  </defs>
  <path class="st0" d="M18,8c0,3.6-3.9,7.4-5.4,8.8-.4.3-.9.3-1.2,0-1.5-1.4-5.4-5.2-5.4-8.8s2.7-6,6-6,6,2.7,6,6"/>
  <circle class="st0" cx="12" cy="8" r="2"/>
  <path class="st0" d="M8.7,14h-3.7c-.4,0-.8.3-.9.7l-2,6c-.2.5.1,1.1.6,1.3.1,0,.2,0,.3,0h18c.6,0,1-.4,1-1,0-.1,0-.2,0-.3l-2-6c-.1-.4-.5-.7-.9-.7h-3.7"/>
</svg>