<?xml version="1.0" standalone="no"?>
<!DOCTYPE svg PUBLIC "-//W3C//DTD SVG 20010904//EN"
 "http://www.w3.org/TR/2001/REC-SVG-20010904/DTD/svg10.dtd">
<svg version="1.0" xmlns="http://www.w3.org/2000/svg"
 width="512.000000pt" height="512.000000pt" viewBox="0 0 512.000000 512.000000"
 preserveAspectRatio="xMidYMid meet">

<g transform="translate(0.000000,512.000000) scale(0.100000,-0.100000)"
fill="#000000" stroke="none">
<path d="M3409 4786 c-141 -38 -256 -168 -282 -321 -8 -50 -7 -87 7 -186 10
-68 26 -147 36 -176 l18 -52 -36 -12 c-64 -20 -185 -87 -242 -134 -72 -59
-142 -144 -184 -225 -35 -66 -166 -451 -166 -486 0 -10 9 -30 19 -43 18 -23
17 -26 -6 -121 -21 -83 -29 -99 -50 -109 -24 -11 -33 -4 -177 136 -83 81 -150
155 -149 163 1 8 11 40 22 70 15 40 20 80 21 148 0 56 7 117 16 149 25 85 16
213 -19 285 -51 103 -156 176 -283 197 -56 9 -66 14 -109 60 -26 28 -73 63
-104 78 -49 24 -68 28 -146 28 -76 0 -99 -4 -146 -26 -117 -55 -189 -161 -197
-289 -5 -90 6 -137 51 -211 21 -35 36 -75 40 -106 3 -27 14 -66 24 -87 16 -35
16 -38 1 -47 -110 -62 -280 -204 -378 -317 -117 -134 -223 -319 -280 -490 -62
-185 -66 -231 -110 -1072 -22 -432 -40 -793 -40 -803 0 -10 11 -29 25 -42 24
-25 27 -25 200 -25 l175 0 0 -175 c0 -173 0 -176 25 -200 32 -33 78 -33 110 0
25 24 25 27 25 200 l0 175 120 0 120 0 0 -175 c0 -173 0 -176 25 -200 32 -33
78 -33 110 0 25 24 25 27 25 200 l0 175 120 0 120 0 0 -175 c0 -173 0 -176 25
-200 15 -16 36 -25 55 -25 19 0 40 9 55 25 25 24 25 27 25 200 l0 175 95 0
c88 0 98 2 120 25 l25 24 0 675 0 674 34 21 c19 12 46 37 60 56 32 41 76 133
76 158 0 9 2 17 4 17 2 0 37 -20 77 -45 40 -25 83 -45 95 -45 12 0 67 30 123
66 l101 66 127 -95 c71 -52 140 -101 156 -108 l27 -12 0 -914 0 -914 25 -24
c15 -16 36 -25 55 -25 19 0 40 9 55 25 l25 24 0 776 0 775 400 0 400 0 0 -775
0 -776 25 -24 c32 -33 78 -33 110 0 l25 24 0 716 c0 570 3 716 13 711 133 -56
241 -40 324 46 64 66 63 53 63 772 0 394 -4 677 -10 716 -52 330 -299 616
-609 707 -54 16 -61 21 -56 38 32 99 36 125 31 195 -8 110 -34 247 -57 299
-75 170 -272 265 -450 217z m166 -157 c60 -17 129 -91 148 -159 29 -102 42
-242 27 -294 -19 -68 -60 -119 -121 -150 -91 -45 -177 -31 -251 43 -53 53 -70
101 -89 252 -10 78 -10 106 1 143 19 68 60 119 121 150 57 28 101 32 164 15z
m-1897 -570 c31 -15 54 -37 78 -75 36 -57 40 -59 139 -69 137 -14 206 -75 213
-192 4 -62 4 -63 -21 -63 -39 0 -107 28 -173 70 -93 61 -114 55 -167 -52 -23
-47 -57 -93 -95 -131 l-59 -58 -33 27 c-44 38 -61 80 -54 141 6 47 5 51 -40
103 -26 30 -49 68 -52 87 -31 164 118 282 264 212z m1666 -168 c44 -27 132
-51 186 -51 55 0 140 24 192 53 20 12 39 19 43 16 10 -11 -34 -114 -75 -178
-44 -68 -109 -142 -151 -172 l-28 -19 -65 60 c-76 72 -123 140 -160 232 -14
36 -26 69 -26 72 0 13 55 5 84 -13z m661 -49 c55 -27 149 -99 196 -149 147
-156 199 -311 199 -584 l0 -149 -120 0 -120 0 0 95 c0 88 -2 98 -25 120 -15
16 -36 25 -55 25 -19 0 -40 -9 -55 -25 l-25 -24 0 -536 0 -535 -400 0 -400 0
0 53 0 54 51 24 c130 60 185 220 117 341 -16 27 -67 75 -158 146 -74 57 -139
108 -143 112 -5 4 1 40 13 79 18 62 24 71 44 71 45 0 65 31 111 170 25 74 45
145 45 158 0 32 -43 72 -77 72 -50 0 -69 -24 -103 -124 l-31 -94 -164 55
c-102 34 -162 59 -160 66 48 157 95 286 124 342 39 75 140 186 202 222 l37 21
17 -46 c35 -94 98 -201 153 -263 76 -84 205 -179 242 -179 34 0 112 62 212
168 86 92 128 162 189 320 10 25 24 24 84 -6z m-2071 -306 c34 -13 81 -27 105
-31 l43 -7 -4 -82 c-3 -64 -10 -91 -27 -120 -67 -108 -221 -126 -312 -35 -20
20 -40 51 -44 69 -6 29 -3 36 47 80 30 27 70 71 89 99 19 28 36 51 38 51 3 0
32 -11 65 -24z m-404 -210 c0 -39 59 -142 106 -186 74 -68 143 -95 244 -95 66
0 96 5 133 22 l48 22 9 -25 c33 -87 -25 -210 -115 -244 -41 -16 -115 -15 -156
3 -51 21 -98 75 -115 132 -18 64 -24 72 -56 84 -36 13 -81 -2 -98 -34 -29 -55
22 -186 102 -261 57 -53 112 -80 188 -91 120 -18 225 14 308 94 25 23 47 41
49 40 9 -10 23 -221 18 -277 -8 -84 -32 -167 -57 -203 -27 -37 -91 -66 -146
-67 -37 0 -48 6 -82 40 -47 48 -88 53 -125 15 -72 -71 22 -192 163 -211 l52
-7 0 -598 0 -599 -637 0 -638 0 3 47 c1 27 18 360 37 741 22 429 41 723 51
773 17 92 73 258 114 339 109 217 300 419 508 541 68 40 92 41 92 5z m1411
-315 c4 -3 -6 -49 -22 -101 -16 -52 -29 -109 -29 -126 0 -37 16 -52 201 -197
135 -105 149 -120 149 -159 0 -34 -63 -88 -101 -88 -43 0 -63 12 -279 175
-221 166 -213 149 -164 348 19 78 39 159 45 179 l9 36 93 -30 c50 -17 95 -33
98 -37z m-485 -271 c14 -6 30 -8 34 -5 5 3 12 -16 16 -42 9 -63 25 -100 59
-142 l29 -33 -25 -19 c-58 -44 -63 -44 -126 -5 -32 19 -64 40 -72 45 -9 6 -16
46 -22 135 -4 70 -11 137 -15 149 -5 17 6 10 44 -26 28 -26 63 -52 78 -57z
m1944 -355 l0 -416 -26 -26 c-45 -45 -134 -21 -188 51 -20 26 -21 41 -24 417
l-3 389 121 0 120 0 0 -415z"/>
<path d="M1065 2935 l-25 -24 0 -271 0 -271 25 -24 c13 -14 31 -25 40 -25 13
0 15 -24 15 -172 l0 -172 102 -154 c112 -169 164 -222 240 -248 144 -48 321
38 343 165 11 63 -8 105 -109 240 l-96 128 0 107 c0 89 2 106 15 106 9 0 27
11 40 25 24 23 25 31 25 135 0 104 -1 112 -25 135 -32 33 -78 33 -110 0 -21
-20 -25 -34 -25 -80 l0 -55 -160 0 -160 0 0 215 c0 216 0 216 -25 240 -15 16
-36 25 -55 25 -19 0 -40 -9 -55 -25z m375 -748 l0 -134 105 -139 c57 -76 105
-142 105 -147 0 -15 -66 -47 -100 -47 -56 0 -86 29 -181 171 l-89 134 0 148 0
147 80 0 80 0 0 -133z"/>
<path d="M3545 1655 l-25 -24 0 -631 0 -631 25 -24 c32 -33 78 -33 110 0 l25
24 0 631 0 631 -25 24 c-15 16 -36 25 -55 25 -19 0 -40 -9 -55 -25z"/>
</g>
</svg>
