<?xml version="1.0" encoding="UTF-8"?>
<svg id="Ebene_1" data-name="Ebene 1" xmlns="http://www.w3.org/2000/svg" viewBox="0 0 261.29 42.46">
  <defs>
    <style>
      .cls-1 {
        font-size: 8px;
      }

      .cls-1, .cls-2 {
        font-family: Poppins-Medium, Poppins;
        font-weight: 500;
      }

      .cls-1, .cls-3 {
        fill: #093952;
      }

      .cls-4 {
        fill: #1d1d1b;
      }

      .cls-5 {
        fill: #597785;
      }

      .cls-6 {
        fill: #84c9bc;
      }

      .cls-2 {
        font-size: 26px;
      }

      .cls-7 {
        fill: #5a7685;
      }

      .cls-8 {
        fill: #4bb29d;
      }

      .cls-9 {
        fill: #51a199;
      }
    </style>
  </defs>
  <g>
    <text class="cls-2" transform="translate(60.93 23.88)"><tspan class="cls-3" x="0" y="0">SPITEX</tspan><tspan class="cls-4" x="83.48" y="0"> </tspan><tspan class="cls-8" x="90.24" y="0">VITALUM</tspan></text>
    <text class="cls-1" transform="translate(102.22 35.98)"><tspan x="0" y="0">Vertraut. Verbunden. Daheim</tspan></text>
  </g>
  <g>
    <path class="cls-7" d="M15.29,36.97c-1.32-1.32-2.64-2.63-3.96-3.95-2.22-2.23-4.43-4.46-6.66-6.68C2.28,23.95.72,21.12.21,17.76c-.71-4.64.4-8.81,3.45-12.4C6.2,2.36,9.46.58,13.36.12c4.41-.52,8.36.66,11.76,3.56.67.57,1.28,1.21,1.92,1.87-.92.98-1.85,1.91-2.77,2.84-.64.65-1.27,1.3-1.93,1.95-.02,0-.06,0-.07-.03-.35-.36-.67-.69-1.01-1.02-1.93-1.85-4.21-2.76-6.9-2.46-3.18.36-5.49,2.03-6.83,4.9-1.55,3.3-.84,6.99,1.72,9.6.95.98,1.92,1.94,2.88,2.95-.03.39-.06.74-.09,1.09-.16,1.52-.16,3.03.12,4.53.47,2.54,1.47,4.84,3.12,6.85.04.05.01.14.02.21Z"/>
    <path class="cls-6" d="M27.15,5.55c2.6-2.92,5.75-4.87,9.68-5.39,4.61-.61,8.69.61,12.2,3.66,2.78,2.42,4.45,5.48,4.98,9.11.7,4.7-.53,8.89-3.66,12.49-.41.47-.84.92-1.28,1.37-3.34,3.36-6.68,6.72-10.01,10.08-.11.11-.23.21-.37.3.02-.11.06-.21.12-.28,1.12-1.32,1.95-2.81,2.56-4.43.8-2.13,1.01-4.35.88-6.6-.03-.48-.16-.96-.25-1.47,0-.07.01-.11.04-.16.94-.92,1.87-1.83,2.77-2.75,1.97-2,2.89-4.37,2.58-7.19-.21-1.87-.95-3.51-2.25-4.85-1.92-1.97-4.26-2.9-7.04-2.62-1.71.17-3.21.81-4.52,1.9-.57.48-1.11,1.01-1.69,1.52-.15-.1-.28-.18-.39-.29-1.03-1.03-2.07-2.06-3.09-3.1-.43-.43-.84-.87-1.27-1.31Z"/>
    <path class="cls-9" d="M42,24.42c.09.48.22.96.25,1.44.13,2.25-.08,4.46-.88,6.6-.61,1.62-1.43,3.11-2.56,4.43-.06.07-.1.17-.15.28-2.21,2.48-4.87,4.23-8.12,4.9-5.46,1.14-10.26-.2-14.3-4.11-.32-.31-.62-.62-.94-.96-.02-.1,0-.19-.03-.24-1.65-2.01-2.65-4.31-3.12-6.85-.28-1.5-.28-3.01-.12-4.53.04-.35.06-.7.11-1.09.02-.04.06-.04.07-.02,1.27,1.32,2.52,2.61,3.79,3.9,1.3,1.31,2.61,2.62,3.92,3.92.11.11.27.18.43.29.13.13.23.25.33.37,2.31,2.76,6.31,3.73,9.62,2.33,1.26-.53,2.33-1.33,3.25-2.37.04-.03.06-.06.07-.08,0,0,0,0,.01,0,.04-.03.05-.06.07-.08,0,0-.01,0,.02,0,.14-.08.27-.15.36-.24,1.62-1.64,3.23-3.28,4.84-4.92.91-.92,1.83-1.83,2.74-2.74.09-.09.21-.13.31-.2Z"/>
    <path class="cls-9" d="M27.13,5.55c.44.44.86.88,1.29,1.31,1.03,1.04,2.06,2.07,3.09,3.1.11.11.24.19.38.32.03.07.03.1,0,.15-.15.1-.28.19-.38.3-1.35,1.34-2.69,2.69-4.04,4.03-.12.11-.27.19-.43.27-1.19-1.17-2.36-2.33-3.52-3.5-.39-.39-.77-.79-1.15-1.19.64-.65,1.27-1.3,1.91-1.95.92-.93,1.84-1.86,2.78-2.81.01-.03.05-.02.07-.02Z"/>
    <path class="cls-6" d="M12.22,24.27c.27-1.74.91-3.33,1.77-4.82.69-1.2,1.56-2.26,2.54-3.24,1.92-1.93,3.83-3.88,5.76-5.85.01-.03.05-.03.07-.03.4.4.78.8,1.17,1.19,1.16,1.16,2.33,2.32,3.52,3.52.03.06.03.09.01.14-2,2.02-4.01,3.99-5.96,6.02-2.5,2.62-3.06,5.7-1.85,9.08.26.72.71,1.38,1.08,2.07-.14-.09-.29-.16-.41-.27-1.31-1.3-2.62-2.6-3.92-3.92-1.27-1.28-2.52-2.58-3.79-3.9Z"/>
    <path class="cls-5" d="M31.89,10.42c2.2,2.18,4.42,4.33,6.53,6.57,1.9,2.02,3.04,4.46,3.59,7.21,0,.07,0,.11,0,.18-.11.09-.23.14-.31.23-.92.91-1.84,1.82-2.74,2.74-1.62,1.64-3.23,3.28-4.84,4.92-.1.1-.22.17-.36.22,2.7-3.65,2.38-8.29-.82-11.5-1.28-1.29-2.56-2.58-3.85-3.86-.66-.66-1.33-1.31-2-1.97,0-.03,0-.06,0-.11.13-.12.29-.19.4-.31,1.35-1.34,2.69-2.69,4.04-4.03.11-.11.24-.2.38-.3Z"/>
    <path class="cls-5" d="M33.65,32.6s0-.05.05-.08c0,.02,0,.05-.05.08Z"/>
    <path class="cls-5" d="M33.56,32.69s.01-.04.05-.08c0,.02-.01.04-.05.08Z"/>
  </g>
</svg>