<svg xmlns="http://www.w3.org/2000/svg" viewBox="0 0 708.7 141"><defs><style>.cls-1{isolation:isolate;}.cls-2{fill:#ed2d35;}.cls-3{fill:#353132;}</style></defs><title>Asset 1</title><g id="Layer_2" data-name="Layer 2"><g id="Layer_1-2" data-name="Layer 1"><g class="cls-1"><g class="cls-1"><polygon class="cls-2" points="708.7 46.8 661.8 46.8 661.8 0 615 0 615 46.8 568.2 46.8 568.2 93.7 615 93.7 615 140.5 661.8 140.5 661.8 93.7 708.7 93.7 708.7 46.8"/><path class="cls-3" d="M16.5,64.4A8.5,8.5,0,0,0,11.1,62a3.5,3.5,0,0,0-3.8,3.7c0,6.2,11.4,6.6,11.4,16.8,0,6.7-3.9,11.8-10.9,11.8a11.6,11.6,0,0,1-6.4-1.9V85.3a9.6,9.6,0,0,0,5.7,2,4.1,4.1,0,0,0,4.3-4.1c0-2.9-2.3-4-4.4-5.5-4.3-2.9-7-5.7-7-11.2S3.5,55.3,9.9,55.3a12.8,12.8,0,0,1,6.6,1.9Z"/><path class="cls-3" d="M35.2,93.3a9.4,9.4,0,0,1-4.1.9c-6.9,0-9.3-7.2-9.3-13s2.5-13.3,9.8-13.3a8.5,8.5,0,0,1,3.5.8v6.2a2.7,2.7,0,0,0-2.1-.8c-3.5,0-4.2,4.2-4.2,6.8s.6,6.8,4.1,6.8a3.8,3.8,0,0,0,2.2-.8Z"/><path class="cls-3" d="M45.3,53.2V72.3h.1a6.5,6.5,0,0,1,5.9-4.4c5.2,0,4.8,5.8,4.8,9.5V93.7H49V79.8c0-1.3.5-4.8-1.8-4.8s-1.9,1.7-1.9,2.9V93.7H38.2V53.2Z"/><path class="cls-3" d="M65.5,68.4,69,83.2h.1l3.3-14.9h6.1l3.2,14.9h.1l.5-2.7,3-12.1H92L85,93.7H79.1l-2.3-8.6-1.5-7.3h-.1l-1.5,8.1-2,7.8H65.8L58.7,68.4Z"/><path class="cls-3" d="M112.2,82.9H101c0,1.9-.1,5.9,2.7,5.9s2.3-1.4,2.3-2.9h6c-.6,4.7-2.9,8.3-8,8.3-7.2,0-9.7-6.4-9.7-12.6s2.2-13.7,9.6-13.7c4.7,0,9,4.2,8.6,12.1Zm-6-5c0-1.7-.4-4.7-2.6-4.7s-2.6,2.9-2.6,4.5v.8h5.2Z"/><path class="cls-3" d="M114.6,60.8a4.5,4.5,0,1,1,9,.1,4.5,4.5,0,1,1-9-.1Zm8,7.6V93.7h-7.1V68.4Z"/><path class="cls-3" d="M143.4,68.4l-7.8,19.5h7v5.9h-17l8-19.5h-7.2V68.4Z"/><path class="cls-3" d="M164,82.9H152.9c0,1.9-.1,5.9,2.7,5.9s2.3-1.4,2.3-2.9h6c-.6,4.7-2.9,8.3-8,8.3-7.2,0-9.7-6.4-9.7-12.6s2.2-13.7,9.6-13.7c4.7,0,9,4.2,8.6,12.1Zm-6-5c0-1.7-.4-4.7-2.6-4.7s-2.6,2.9-2.6,4.5v.8h5.2Z"/><path class="cls-3" d="M174.5,68.4v3.1h.1c1.3-2.2,3-3.8,5.8-4v6.9h-1.1c-4.7,0-4.8,3.1-4.8,6.9V93.7h-7.1V68.4Z"/><path class="cls-3" d="M182.4,60.8a4.5,4.5,0,1,1,9,.1,4.5,4.5,0,1,1-9-.1Zm8,7.6V93.7h-7.1V68.4Z"/><path class="cls-3" d="M206.8,75.2a4.9,4.9,0,0,0-3.4-1.7,1.7,1.7,0,0,0-1.9,1.9c.1,3,8.1,2.4,8.1,9.9,0,5-2.9,8.9-8.1,8.9a12.3,12.3,0,0,1-7.6-2.9l3.1-5a5.4,5.4,0,0,0,3.5,1.7,2,2,0,0,0,2.1-2.1c.1-3.4-8.1-2.5-8.1-10.5,0-4.8,4-7.4,8.5-7.4a10.9,10.9,0,0,1,6.8,2.2Z"/><path class="cls-3" d="M225.9,93.3a9.4,9.4,0,0,1-4.1.9c-6.9,0-9.3-7.2-9.3-13s2.5-13.3,9.8-13.3a8.5,8.5,0,0,1,3.5.8v6.2a2.7,2.7,0,0,0-2.1-.8c-3.5,0-4.2,4.2-4.2,6.8s.6,6.8,4.1,6.8a3.8,3.8,0,0,0,2.2-.8Z"/><path class="cls-3" d="M236.1,53.2V72.3h.1a6.5,6.5,0,0,1,5.9-4.4c5.2,0,4.8,5.8,4.8,9.5V93.7h-7.1V79.8c0-1.3.5-4.8-1.8-4.8s-1.9,1.7-1.9,2.9V93.7H229V53.2Z"/><path class="cls-3" d="M268,82.9H256.8c0,1.9-.1,5.9,2.7,5.9s2.3-1.4,2.3-2.9h6c-.6,4.7-2.9,8.3-8,8.3-7.2,0-9.7-6.4-9.7-12.6s2.2-13.7,9.6-13.7c4.7,0,9,4.2,8.6,12.1Zm-6-5c0-1.7-.4-4.7-2.6-4.7s-2.6,2.9-2.6,4.5v.8H262Z"/><path class="cls-3" d="M284.1,75.2a4.9,4.9,0,0,0-3.4-1.7,1.7,1.7,0,0,0-1.9,1.9c.1,3,8.1,2.4,8.1,9.9,0,5-2.9,8.9-8.1,8.9a12.3,12.3,0,0,1-7.6-2.9l3.1-5a5.4,5.4,0,0,0,3.5,1.7,2,2,0,0,0,2.1-2.1c.1-3.4-8.1-2.5-8.1-10.5,0-4.8,4-7.4,8.5-7.4A10.9,10.9,0,0,1,287,70Z"/><path class="cls-3" d="M303.7,93.7V55.9h7.5c4.8,0,13.3.5,13.3,10.8,0,4.2-1.7,7.7-5.4,9.8l6.6,17.2h-7.9l-6.6-17.5h-.1V93.7Zm7.5-21.6h1.3c3.4,0,4.8-2.3,4.8-5.4s-1.3-4.9-5.1-4.7h-1Z"/><path class="cls-3" d="M348.3,81.1c0,6.5-2.1,13.1-9.6,13.1s-9.6-6.7-9.6-13.1,2.1-13.2,9.6-13.2S348.3,74.6,348.3,81.1Zm-12.2,0c0,1.5.1,6.8,2.6,6.8s2.6-5.4,2.6-6.8-.1-6.8-2.6-6.8S336.1,79.6,336.1,81.1Z"/><path class="cls-3" d="M360.8,61.3v7h2.9v5.8h-2.9V93.7h-7.1V74.2h-2.5V68.4h2.5v-7Z"/><path class="cls-3" d="M384.7,82.9H373.5c0,1.9-.1,5.9,2.7,5.9s2.3-1.4,2.3-2.9h6c-.6,4.7-2.9,8.3-8,8.3-7.2,0-9.7-6.4-9.7-12.6s2.2-13.7,9.6-13.7c4.7,0,9,4.2,8.6,12.1Zm-6-5c0-1.7-.4-4.7-2.6-4.7s-2.6,2.9-2.6,4.5v.8h5.2Z"/><path class="cls-3" d="M400.8,75.2a4.9,4.9,0,0,0-3.4-1.7,1.7,1.7,0,0,0-1.9,1.9c.1,3,8.1,2.4,8.1,9.9,0,5-2.9,8.9-8.1,8.9a12.3,12.3,0,0,1-7.6-2.9l3.1-5a5.4,5.4,0,0,0,3.5,1.7,2,2,0,0,0,2.1-2.1c.1-3.4-8.1-2.5-8.1-10.5,0-4.8,4-7.4,8.5-7.4a10.9,10.9,0,0,1,6.8,2.2Z"/><path class="cls-3" d="M427.9,55.9V72.8h.1l6.2-16.9h7.6l-7,17.5,7.9,20.4h-7.9L428,74.4h-.1V93.7h-7.5V55.9Z"/><path class="cls-3" d="M452.5,68.4v3.1h.1c1.3-2.2,3-3.8,5.8-4v6.9h-1.1c-4.7,0-4.8,3.1-4.8,6.9V93.7h-7.1V68.4Z"/><path class="cls-3" d="M478.9,82.9H467.7c0,1.9-.1,5.9,2.7,5.9s2.3-1.4,2.3-2.9h6c-.6,4.7-2.9,8.3-8,8.3-7.2,0-9.7-6.4-9.7-12.6s2.2-13.7,9.6-13.7c4.7,0,9,4.2,8.6,12.1Zm-6-5c0-1.7-.4-4.7-2.6-4.7s-2.6,2.9-2.6,4.5v.8h5.2Z"/><path class="cls-3" d="M489.3,68.4V82.3c0,1.4-.6,5.3,1.8,5.3s1.8-2.5,1.8-3.8V68.4h7V84.5c0,5.9-2.8,9.7-9,9.7-8,0-8.7-6-8.7-10.6V68.4Z"/><path class="cls-3" d="M520.9,68.4,513,87.8h7v5.9H503l8-19.5h-7.2V68.4Z"/><path class="cls-3" d="M310,120.5l8.6,20h-4L307,121.3h-.1v19.2h-3.5V102.4h3.5v17.3h.1l7.6-17.3h3.9Z"/><path class="cls-3" d="M336.1,140.5h-3.3v-2h-.1a5,5,0,0,1-4.3,2.4c-4.1,0-6.2-2.3-6.2-13.6,0-5.8.2-13.1,6.5-13.1a4.5,4.5,0,0,1,4,2.2h.1v-1.8h3.3Zm-6.6-23.6c-3.6,0-3.8,5.8-3.8,10.2,0,10.7,1.8,11.2,3.7,11.2s3.8-3,3.8-11.1C333.1,121.5,332.7,116.8,329.5,116.8Z"/><path class="cls-3" d="M345.7,116.6a6.7,6.7,0,0,1,5.1-2.5c4.6,0,5,4.2,5,7.8v18.5h-3.3V122.3c0-3.1-.2-5.5-2.9-5.5s-3.9,4.1-3.9,6.8v16.8h-3.3V114.5h3.3Z"/><path class="cls-3" d="M371.1,117.6h-4.3v22.9h-3.3V117.6h-2.8v-3h2.8v-7.1h3.3v7.1h4.3Z"/><path class="cls-3" d="M388.6,127.5c0,4.9-.6,13.4-7.4,13.4s-7.4-8.5-7.4-13.4.6-13.3,7.4-13.3S388.6,122.6,388.6,127.5Zm-11.5,0c0,2.5.1,10.3,4,10.3s4-7.8,4-10.3-.1-10.3-4-10.3S377.2,125,377.2,127.5Z"/><path class="cls-3" d="M397.5,116.6a6.7,6.7,0,0,1,5.1-2.5c4.6,0,5,4.2,5,7.8v18.5h-3.3V122.3c0-3.1-.2-5.5-2.9-5.5s-3.9,4.1-3.9,6.8v16.8h-3.3V114.5h3.3Z"/><path class="cls-3" d="M434.2,120.4h8.7v7c0,6-.3,13.6-8.2,13.6s-8.8-8.4-8.8-20.5c0-9,1.1-18.6,9.1-18.6,4.5,0,6.8,3,7.8,7.2l-3.5,1.4c-.4-2.3-1.4-5.1-4.1-5.1-5.3,0-5.7,8.2-5.7,14.9,0,14.1,1.8,17.3,5.5,17.3s4.3-2.9,4.3-11.1v-2.9h-5.2Z"/><path class="cls-3" d="M452.1,140.5h-3.3V100.1h3.3Z"/><path class="cls-3" d="M471.5,140.5h-3.3v-2h-.1a5,5,0,0,1-4.3,2.4c-4.1,0-6.2-2.3-6.2-13.6,0-5.8.2-13.1,6.5-13.1a4.5,4.5,0,0,1,4,2.2h.1v-1.8h3.3Zm-6.6-23.6c-3.6,0-3.8,5.8-3.8,10.2,0,10.7,1.8,11.2,3.7,11.2s3.8-3,3.8-11.1C468.6,121.5,468.2,116.8,464.9,116.8Z"/><path class="cls-3" d="M481.1,118h.1c.7-1.8,2.1-3.9,4.3-3.8V118h-.7c-3.4,0-3.7,3.3-3.7,7.4v15.1h-3.3V114.5h3.3Z"/><path class="cls-3" d="M493.5,114.5v16.3c0,3.5.2,7,3.4,7s3.5-3.4,3.5-7V114.5h3.3v19c0,4.3-2.1,7.3-6.8,7.3s-6.8-2.9-6.8-7.3v-19Z"/><path class="cls-3" d="M519.8,119.9h-.1a5.5,5.5,0,0,0-4.3-2.6,3.2,3.2,0,0,0-3.2,3.4c0,2.5,2.1,4,4.2,5.7s4.2,3.7,4.2,7.1-2.8,7.4-7.1,7.4a8,8,0,0,1-4.7-1.8v-3.8c1.3,1.3,2.6,2.5,4.6,2.5a3.8,3.8,0,0,0,3.8-3.9c0-2.6-2.1-4.3-4.2-6.2s-4.2-3.8-4.2-6.9,2.6-6.6,6.5-6.6a7.5,7.5,0,0,1,4.5,1.7Z"/></g></g></g></g></svg>